<?xml version="1.0" encoding="utf-8"?>
<!-- Generator: Adobe Illustrator 16.0.0, SVG Export Plug-In . SVG Version: 6.00 Build 0)  -->
<!DOCTYPE svg PUBLIC "-//W3C//DTD SVG 1.1//EN" "http://www.w3.org/Graphics/SVG/1.1/DTD/svg11.dtd">
<svg version="1.1" id="Layer_1" xmlns="http://www.w3.org/2000/svg" xmlns:xlink="http://www.w3.org/1999/xlink" x="0px" y="0px"
	 width="268px" height="151.173px" viewBox="0 0 268 151.173" enable-background="new 0 0 268 151.173" xml:space="preserve">
<g>
	<g>
		<path d="M126.663,96.939c0.109-0.081,0.355-0.34,0.738-0.776c0.383-0.436,0.882-0.899,1.498-1.391
			c0.616-0.49,1.327-0.94,2.134-1.349c0.807-0.409,1.675-0.613,2.605-0.613c1.641,0,2.804,0.484,3.488,1.451
			c0.684,0.968,1.026,2.311,1.026,4.027v9.936c0,0.408,0.245,0.715,0.736,0.92c0.491,0.204,1.036,0.361,1.635,0.47
			c0.246,0.055,0.368,0.219,0.368,0.49c0,0.164-0.027,0.383-0.082,0.654c-0.709-0.055-1.405-0.102-2.087-0.143
			c-0.684-0.041-1.425-0.062-2.225-0.062c-0.717,0-1.446,0.021-2.184,0.062c-0.739,0.041-1.449,0.088-2.13,0.143
			c-0.055-0.271-0.082-0.49-0.082-0.654c0-0.271,0.123-0.436,0.368-0.49c0.245-0.026,0.497-0.082,0.756-0.163
			c0.259-0.082,0.497-0.178,0.715-0.286c0.218-0.109,0.402-0.238,0.552-0.389c0.149-0.149,0.225-0.334,0.225-0.552v-8.423
			c0-1.689-0.205-2.827-0.613-3.414c-0.409-0.586-1.077-0.879-2.003-0.879c-0.709,0-1.384,0.116-2.024,0.348
			c-0.641,0.231-1.206,0.572-1.697,1.022c-0.49,0.449-0.886,1.001-1.186,1.655c-0.3,0.654-0.45,1.404-0.45,2.249v7.441
			c0,0.408,0.231,0.715,0.695,0.92c0.463,0.204,0.981,0.361,1.553,0.47c0.246,0.055,0.368,0.219,0.368,0.49
			c0,0.164-0.027,0.383-0.082,0.654c-0.709-0.055-1.397-0.102-2.065-0.143c-0.668-0.041-1.37-0.062-2.105-0.062
			c-0.736,0-1.466,0.021-2.188,0.062c-0.723,0.041-1.438,0.088-2.146,0.143c-0.055-0.271-0.082-0.49-0.082-0.654
			c0-0.271,0.123-0.436,0.368-0.49c0.491-0.082,0.988-0.225,1.492-0.43c0.504-0.204,0.756-0.524,0.756-0.96v-8.423
			c0-1.689-0.197-2.827-0.589-3.414c-0.394-0.586-1.051-0.879-1.973-0.879c-0.706,0-1.377,0.116-2.014,0.348
			c-0.638,0.231-1.207,0.572-1.708,1.022c-0.502,0.449-0.902,1.001-1.2,1.655s-0.447,1.404-0.447,2.249v7.441
			c0,0.408,0.238,0.715,0.715,0.92c0.477,0.204,0.988,0.361,1.533,0.47c0.246,0.055,0.368,0.219,0.368,0.49
			c0,0.164-0.027,0.383-0.082,0.654c-0.709-0.055-1.406-0.102-2.089-0.143s-1.412-0.062-2.184-0.062c-0.8,0-1.556,0.021-2.267,0.062
			s-1.407,0.088-2.087,0.143c-0.055-0.271-0.082-0.49-0.082-0.654c0-0.271,0.123-0.436,0.368-0.49
			c0.599-0.108,1.145-0.266,1.635-0.47c0.491-0.205,0.736-0.524,0.736-0.961V97.062c0-0.817-0.143-1.403-0.429-1.758
			s-0.906-0.573-1.86-0.654c-0.354-0.055-0.531-0.245-0.531-0.572c0-0.137,0.027-0.313,0.082-0.532c0.354,0,0.852-0.021,1.493-0.061
			c0.64-0.041,1.167-0.089,1.578-0.144c0.634-0.108,1.199-0.225,1.695-0.348c0.496-0.122,0.854-0.184,1.075-0.184
			c0.386,0,0.579,0.204,0.579,0.613c0,0.382-0.041,0.838-0.123,1.369c-0.082,0.532-0.123,1.234-0.123,2.105
			c0.081-0.081,0.312-0.34,0.692-0.776c0.38-0.436,0.876-0.899,1.487-1.391c0.611-0.49,1.31-0.933,2.098-1.328
			c0.788-0.395,1.657-0.593,2.608-0.593c1.412,0,2.465,0.361,3.157,1.083C126.112,94.616,126.526,95.632,126.663,96.939z"/>
		<path d="M160.392,109.451c0.3,0,0.463,0.286,0.491,0.858c-0.709,0.49-1.608,0.735-2.698,0.735c-0.603,0-1.125-0.089-1.567-0.266
			c-0.442-0.178-0.814-0.415-1.118-0.715c-0.304-0.3-0.539-0.641-0.704-1.022c-0.166-0.382-0.276-0.777-0.332-1.186
			c-0.682,1.227-1.492,2.064-2.433,2.515c-0.94,0.449-2.024,0.674-3.25,0.674c-0.545,0-1.125-0.048-1.738-0.143
			c-0.613-0.096-1.192-0.293-1.737-0.593c-0.546-0.3-0.996-0.722-1.35-1.268c-0.354-0.545-0.531-1.268-0.531-2.167
			c0-1.008,0.238-1.86,0.715-2.556c0.477-0.694,1.09-1.268,1.84-1.717c0.75-0.45,1.567-0.811,2.453-1.084
			c0.886-0.271,1.738-0.504,2.556-0.694c0.463-0.082,0.892-0.17,1.288-0.266c0.395-0.096,0.743-0.198,1.042-0.307
			c0.382-0.109,0.62-0.259,0.716-0.45c0.095-0.19,0.143-0.559,0.143-1.104c0-1.281-0.246-2.337-0.736-3.169
			c-0.491-0.831-1.363-1.247-2.617-1.247c-0.464,0-0.859,0.055-1.186,0.163c-0.327,0.109-0.6,0.28-0.817,0.512
			c-0.219,0.231-0.409,0.538-0.573,0.92c-0.163,0.382-0.327,0.832-0.49,1.349c-0.082,0.301-0.266,0.519-0.552,0.654
			c-0.286,0.137-0.771,0.301-1.451,0.491c-0.164,0.055-0.368,0.109-0.613,0.163c-0.246,0.055-0.45,0.082-0.613,0.082
			c-0.273,0-0.409-0.286-0.409-0.858c0-0.6,0.231-1.199,0.695-1.799c0.463-0.6,1.056-1.131,1.778-1.595s1.506-0.839,2.351-1.125
			c0.845-0.286,1.649-0.429,2.412-0.429c0.954,0,1.814,0.081,2.581,0.245c0.767,0.163,1.426,0.464,1.978,0.899
			c0.552,0.437,0.972,1.022,1.262,1.758c0.29,0.736,0.435,1.69,0.435,2.862v7.032c0,0.954,0.034,1.643,0.102,2.064
			c0.068,0.423,0.17,0.757,0.307,1.002c0.19,0.382,0.402,0.634,0.634,0.757c0.231,0.122,0.47,0.184,0.715,0.184
			c0.3,0,0.511-0.026,0.634-0.082C160.126,109.479,160.255,109.451,160.392,109.451z M154.178,101.479l-1.316,0.204
			c-0.713,0.137-1.406,0.3-2.078,0.49c-0.672,0.191-1.268,0.457-1.789,0.798c-0.521,0.341-0.939,0.771-1.255,1.287
			c-0.315,0.519-0.473,1.159-0.473,1.922c0,1.036,0.267,1.827,0.802,2.372s1.2,0.817,1.995,0.817c0.521,0,1.035-0.116,1.542-0.348
			s0.945-0.559,1.316-0.981c0.371-0.422,0.672-0.92,0.905-1.492c0.232-0.572,0.35-1.199,0.35-1.881V101.479z M153.033,83.079
			c0.791,0,1.431,0.219,1.922,0.654c0.491,0.437,0.736,0.887,0.736,1.35c0,0.437-0.191,0.764-0.572,0.981
			c-0.546,0.354-1.036,0.688-1.472,1.001c-0.436,0.314-0.865,0.642-1.288,0.981c-0.423,0.342-0.859,0.702-1.309,1.084
			s-0.934,0.804-1.451,1.268c-0.464-0.218-0.695-0.477-0.695-0.777c0-0.136,0.068-0.3,0.205-0.49L153.033,83.079z"/>
		<path d="M174.375,92.852c0.791,0,1.376,0.19,1.758,0.572c0.381,0.382,0.572,0.804,0.572,1.268c0,0.163-0.027,0.313-0.082,0.449
			c-0.055,0.137-0.184,0.28-0.389,0.43c-0.204,0.15-0.491,0.327-0.858,0.531c-0.368,0.204-0.879,0.457-1.533,0.757
			c-0.246-0.3-0.539-0.559-0.879-0.777c-0.341-0.218-0.715-0.327-1.124-0.327c-0.464,0-0.886,0.13-1.268,0.389
			c-0.382,0.26-0.709,0.613-0.981,1.062c-0.272,0.45-0.484,0.969-0.633,1.554c-0.15,0.587-0.225,1.193-0.225,1.819v7.033
			c0,0.6,0.313,1.042,0.94,1.328c0.626,0.286,1.526,0.512,2.698,0.675c0.272,0.055,0.409,0.219,0.409,0.49
			c0,0.164-0.028,0.383-0.082,0.654c-0.3-0.027-0.674-0.048-1.124-0.061c-0.45-0.015-0.92-0.035-1.411-0.062
			c-0.491-0.027-0.997-0.048-1.518-0.062s-1.003-0.021-1.444-0.021c-0.745,0-1.514,0.021-2.308,0.062s-1.544,0.088-2.253,0.143
			c-0.055-0.271-0.082-0.49-0.082-0.654c0-0.271,0.123-0.436,0.368-0.49c0.626-0.108,1.179-0.272,1.656-0.49
			c0.477-0.218,0.715-0.532,0.715-0.94V97.799c0-0.573-0.034-1.05-0.102-1.432c-0.068-0.381-0.184-0.688-0.348-0.92
			c-0.164-0.231-0.402-0.401-0.715-0.511c-0.313-0.108-0.715-0.19-1.206-0.245c-0.354-0.055-0.532-0.231-0.532-0.532
			c0-0.163,0.027-0.354,0.082-0.572c0.354,0,0.852-0.021,1.492-0.062c0.64-0.04,1.166-0.088,1.577-0.143
			c0.607-0.108,1.138-0.225,1.593-0.348s0.793-0.184,1.014-0.184c0.386,0,0.58,0.204,0.58,0.613v2.739
			c0.872-0.954,1.751-1.751,2.637-2.393C172.255,93.172,173.257,92.852,174.375,92.852z"/>
		<path d="M184.392,108.184c0,0.408,0.218,0.715,0.654,0.92c0.436,0.204,0.967,0.375,1.594,0.511
			c0.246,0.055,0.368,0.219,0.368,0.49c0,0.164-0.027,0.383-0.082,0.654c-0.709-0.055-1.398-0.102-2.068-0.143
			s-1.391-0.062-2.164-0.062c-0.8,0-1.562,0.021-2.287,0.062c-0.724,0.041-1.428,0.088-2.108,0.143
			c-0.055-0.271-0.082-0.49-0.082-0.654c0-0.271,0.109-0.436,0.327-0.49c0.572-0.108,1.117-0.266,1.635-0.47
			c0.518-0.205,0.777-0.524,0.777-0.961V86.187c0-0.872-0.164-1.465-0.49-1.778c-0.327-0.312-0.981-0.511-1.963-0.593
			c-0.354-0.055-0.531-0.245-0.531-0.572c0-0.164,0.027-0.354,0.082-0.572c0.354,0,0.845-0.021,1.472-0.062
			c0.626-0.041,1.2-0.088,1.72-0.144c0.634-0.081,1.199-0.19,1.695-0.327c0.496-0.136,0.854-0.204,1.075-0.204
			c0.248,0,0.413,0.055,0.497,0.164c0.082,0.108,0.124,0.259,0.124,0.449c0,0.464-0.041,1.002-0.123,1.615
			c-0.082,0.613-0.123,1.329-0.123,2.146l-0.002,14.637l6.135-5.438c0.245-0.136,0.368-0.341,0.368-0.613
			c0-0.19-0.103-0.313-0.307-0.368c-0.205-0.054-0.43-0.103-0.675-0.143c-0.245-0.041-0.47-0.109-0.675-0.205
			c-0.204-0.095-0.307-0.266-0.307-0.511c0-0.108,0.027-0.272,0.082-0.49c0.164,0,0.613,0.02,1.349,0.061s1.513,0.062,2.331,0.062
			s1.554-0.021,2.208-0.062c0.654-0.041,1.076-0.061,1.267-0.061c0,0.027,0.021,0.088,0.062,0.184s0.062,0.198,0.062,0.307
			c0,0.163-0.048,0.313-0.144,0.449c-0.096,0.137-0.239,0.205-0.429,0.205c-0.627,0.055-1.138,0.157-1.533,0.307
			c-0.396,0.15-0.674,0.293-0.838,0.429l-5.724,5.152l6.624,7.687c0.545,0.654,1.076,1.069,1.594,1.247
			c0.518,0.177,1.008,0.293,1.472,0.347c0.272,0,0.409,0.164,0.409,0.491c0,0.082-0.014,0.204-0.041,0.368
			c-0.027,0.163-0.055,0.299-0.082,0.408c-1.854-0.081-3.762-0.122-5.724-0.122l-7.441-8.995h-0.041V108.184z"/>
		<path d="M201.073,97.062c0-0.899-0.13-1.506-0.388-1.819c-0.26-0.313-0.853-0.512-1.779-0.593
			c-0.354-0.055-0.531-0.231-0.531-0.532c0-0.163,0.027-0.354,0.082-0.572c0.354,0,0.824-0.021,1.411-0.061
			c0.586-0.041,1.083-0.103,1.492-0.185c0.599-0.082,1.125-0.184,1.574-0.307c0.45-0.122,0.783-0.184,1.001-0.184
			c0.381,0,0.573,0.204,0.573,0.613v10.221c0,0.682,0.041,1.309,0.123,1.881c0.082,0.573,0.231,1.07,0.45,1.493
			c0.218,0.423,0.532,0.75,0.94,0.98c0.409,0.232,0.926,0.348,1.554,0.348c0.681,0,1.349-0.115,2.003-0.348
			c0.654-0.23,1.233-0.572,1.737-1.021c0.504-0.45,0.906-1.002,1.207-1.656c0.299-0.654,0.45-1.417,0.45-2.29v-5.969
			c0-0.872-0.13-1.472-0.389-1.799c-0.259-0.327-0.866-0.532-1.819-0.613c-0.354-0.055-0.532-0.231-0.532-0.532
			c0-0.163,0.027-0.354,0.082-0.572c0.354,0,0.824-0.021,1.411-0.061c0.585-0.041,1.097-0.103,1.533-0.185
			c0.607-0.082,1.132-0.184,1.574-0.307c0.442-0.122,0.773-0.184,0.994-0.184c0.387,0,0.58,0.204,0.58,0.613v13.288
			c0,0.463,0.027,0.838,0.082,1.124c0.054,0.286,0.164,0.518,0.327,0.695c0.164,0.177,0.388,0.313,0.674,0.408
			c0.286,0.096,0.661,0.157,1.125,0.185c0.354,0.055,0.531,0.231,0.531,0.531c0,0.163-0.027,0.354-0.082,0.572
			c-0.518,0-1.063,0.041-1.635,0.123c-0.573,0.081-1.121,0.163-1.644,0.245c-0.524,0.082-0.986,0.163-1.386,0.245
			s-0.683,0.123-0.848,0.123c-0.386,0-0.579-0.205-0.579-0.613v-3.394c-0.082,0.081-0.314,0.341-0.695,0.776
			c-0.382,0.437-0.879,0.899-1.492,1.391c-0.613,0.49-1.322,0.934-2.126,1.328c-0.805,0.396-1.67,0.593-2.596,0.593
			c-1.663,0-2.91-0.477-3.741-1.431c-0.832-0.954-1.247-2.303-1.247-4.048V97.062z"/>
		<path d="M232.759,97.839c-0.219,0-0.375-0.047-0.47-0.143c-0.096-0.096-0.157-0.197-0.184-0.307
			c-0.191-1.117-0.634-1.915-1.329-2.392c-0.695-0.477-1.561-0.716-2.596-0.716c-0.791,0-1.492,0.225-2.105,0.675
			c-0.613,0.449-0.92,1.07-0.92,1.86c0,0.709,0.279,1.302,0.838,1.778c0.558,0.478,1.574,0.947,3.046,1.41
			c0.79,0.246,1.519,0.519,2.188,0.818c0.667,0.3,1.24,0.661,1.717,1.083c0.477,0.423,0.852,0.94,1.125,1.554
			c0.272,0.613,0.409,1.343,0.409,2.188c0,0.709-0.129,1.39-0.388,2.044c-0.259,0.654-0.654,1.227-1.186,1.718
			c-0.532,0.49-1.2,0.886-2.003,1.186c-0.805,0.3-1.765,0.449-2.883,0.449c-0.873,0-1.847-0.102-2.923-0.307
			c-1.077-0.204-2.051-0.552-2.923-1.042c-0.055-0.709-0.102-1.451-0.143-2.229c-0.041-0.776-0.061-1.56-0.061-2.351h0.409
			c0.272,0,0.504,0.048,0.695,0.143c0.19,0.096,0.299,0.253,0.327,0.471c0.108,1.145,0.552,2.064,1.329,2.76
			c0.777,0.694,1.86,1.042,3.25,1.042c1.117,0,1.976-0.251,2.576-0.756c0.599-0.504,0.899-1.192,0.899-2.064
			c0-0.9-0.327-1.588-0.981-2.065c-0.654-0.477-1.622-0.905-2.903-1.288c-1.608-0.49-2.869-1.13-3.782-1.921
			c-0.914-0.791-1.37-1.949-1.37-3.476c0-0.708,0.136-1.376,0.409-2.003s0.654-1.172,1.145-1.636
			c0.491-0.463,1.09-0.831,1.799-1.104c0.708-0.271,1.499-0.408,2.372-0.408c1.09,0,2.119,0.143,3.087,0.429
			c0.967,0.286,1.723,0.593,2.269,0.92c0.027,0.219,0.054,0.484,0.082,0.798c0.027,0.313,0.047,0.641,0.062,0.981
			c0.013,0.341,0.027,0.682,0.041,1.021c0.013,0.342,0.02,0.648,0.02,0.92L232.759,97.839z"/>
	</g>
	<g>
		<path d="M110.124,115.932h5.579v0.353h-5.197v3.406h4.698v0.351h-4.698v3.459h5.25v0.353h-5.632V115.932z"/>
		<path d="M128.972,115.932h0.382v7.568h4.776v0.353h-5.159V115.932z"/>
		<path d="M147.132,115.932h0.389v7.921h-0.389V115.932z"/>
		<path d="M167.323,115.932l-3.074,3.892l3.189,4.029h-0.453l-2.977-3.78l-2.97,3.78h-0.459l3.194-4.029l-3.079-3.892h0.453
			l2.861,3.646l2.867-3.646H167.323z"/>
		<path d="M180.502,115.932h0.387v7.921h-0.387V115.932z M181.612,113.988l0.417,0.216l-1.186,0.992h-0.332L181.612,113.988z"/>
		<path d="M194.638,115.932h3.274c1.005,0,1.77,0.284,2.259,0.761c0.363,0.374,0.575,0.884,0.575,1.471v0.021
			c0,1.334-1.026,2.116-2.483,2.239l2.634,3.43h-0.491l-2.577-3.383h-2.805v3.383h-0.387V115.932z M197.807,120.121
			c1.631,0,2.558-0.794,2.558-1.916v-0.021c0-1.188-0.92-1.899-2.479-1.899h-2.86v3.837H197.807z"/>
	</g>
	<path fill="#8E9090" d="M112.311,25.193c0,0-21.568,22.909-21.568,40.187c0,17.282,14.756,21.94,21.568,21.94
		c6.809,0,21.569-4.658,21.569-21.94C133.88,48.103,112.311,25.193,112.311,25.193z"/>
	<path fill="#00A7BD" d="M68.541,25.193c0,0-34.829,36.987-34.829,64.88c0,27.9,23.829,35.422,34.829,35.422
		c10.993,0,34.822-7.521,34.822-35.422C103.363,62.181,68.541,25.193,68.541,25.193z"/>
	<path fill="#C49A6C" d="M89.693,25.193c0,0-17.192,18.254-17.192,32.021c0,13.767,11.763,17.48,17.192,17.48
		c5.426,0,17.185-3.714,17.185-17.48C106.877,43.447,89.693,25.193,89.693,25.193z"/>
</g>
</svg>
